# xmcd
#
# Track frame offsets:
#	150
#	12424
#	24120
#	35600
#	47858
#	60490
#	78240
#	90042
#	103783
#	116564
#	125554
#	137534
#	149126
#	162156
#	171663
#	188165
#	201979
#	222989
#	235649
#	249520
#
# Disc length: 3555 seconds
#
# Revision: 3
# Processed by: cddbd v1.5.1PL2 Copyright (c) Steve Scherf et al.
# Submitted via: EasyCDDAExtractor 9.0.0.1
#
DISCID=150de114
DTITLE=Brenda Lee - Anthology, Vol. 1-2 (1956-1980) - Disc 2
DYEAR=1991
DGENRE=Country
TTITLE0=Break It To Me Gently
TTITLE1=Everybody Loves Me But You
TTITLE2=Heart In Hand
TTITLE3=Someday You'll Want Me To Want You
TTITLE4=All Alone Am I
TTITLE5=My Coloring Book
TTITLE6=Losing You
TTITLE7=I Wonder
TTITLE8=The Grass Is Greener
TTITLE9=My Whole World Is Falling Down
TTITLE10=As Usual
TTITLE11=Is It True
TTITLE12=Too Many Rivers
TTITLE13=Coming On Strong
TTITLE14=Johnny One Time
TTITLE15=Nobody Wins
TTITLE16=Big Four Poster Bed
TTITLE17=Rock On Baby
TTITLE18=Tell Me What It's Like
TTITLE19=Broken Trust
EXTD=
EXTT0=
EXTT1=
EXTT2=
EXTT3=
EXTT4=
EXTT5=
EXTT6=
EXTT7=
EXTT8=
EXTT9=
EXTT10=
EXTT11=
EXTT12=
EXTT13=
EXTT14=
EXTT15=
EXTT16=
EXTT17=
EXTT18=
EXTT19=
PLAYORDER=
